<svg width="25" height="25" viewBox="0 0 25 25" fill="none" xmlns="http://www.w3.org/2000/svg">
<path d="M25 5.20833H23.9583V19.7917H25V5.20833Z" fill="white"/>
<path d="M5.20833 6.37458e-07V1.04167L19.7917 1.04167V0L5.20833 6.37458e-07Z" fill="white"/>
<path d="M5.20833 23.9583V25L19.7917 25V23.9583H5.20833Z" fill="white"/>
<path d="M21.875 20.8333V21.875H20.8333V22.9167H22.9167V20.8333H21.875Z" fill="white"/>
<path d="M20.8333 2.08333V3.125H21.875V4.16667H22.9167V2.08333H20.8333Z" fill="white"/>
<path d="M21.875 4.16667V5.20833H22.9167V4.16667H21.875Z" fill="white"/>
<path d="M19.7917 2.08333V3.125H20.8333V2.08333H19.7917Z" fill="white"/>
<path d="M19.7917 1.04167V2.08333H20.8333V1.04167H19.7917Z" fill="white"/>
<path d="M4.16667 1.04167V2.08333H5.20833V1.04167L4.16667 1.04167Z" fill="white"/>
<path d="M1.04167 4.16667V5.20833H2.08333V4.16667H1.04167Z" fill="white"/>
<path d="M1.04167 19.7917V20.8333H2.08333V19.7917H1.04167Z" fill="white"/>
<path d="M4.16667 22.9167V23.9583H5.20833V22.9167H4.16667Z" fill="white"/>
<path d="M19.7917 22.9167V23.9583H20.8333V22.9167H19.7917Z" fill="white"/>
<path d="M22.9167 19.7917V20.8333H23.9583V19.7917H22.9167Z" fill="white"/>
<path d="M22.9167 4.16667V5.20833H23.9583V4.16667H22.9167Z" fill="white"/>
<path d="M4.16667 2.08333V3.125H5.20833V2.08333H4.16667Z" fill="white"/>
<path d="M2.08333 4.16667V5.20833H3.125V4.16667H2.08333Z" fill="white"/>
<path d="M21.875 19.7917V20.8333H22.9167V19.7917H21.875Z" fill="white"/>
<path d="M19.7917 21.875V22.9167H20.8333V21.875H19.7917Z" fill="white"/>
<path d="M4.16667 21.875V22.9167H5.20833V21.875H4.16667Z" fill="white"/>
<path d="M2.08333 19.7917V20.8333H3.125V19.7917H2.08333Z" fill="white"/>
<path d="M2.08333 2.08333V4.16667H3.125V3.125H4.16667V2.08333H2.08333Z" fill="white"/>
<path d="M2.08333 20.8333V22.9167H4.16667V21.875H3.125V20.8333H2.08333Z" fill="white"/>
<path d="M1.04167 5.20833H0V19.7917H1.04167V5.20833Z" fill="white"/>
<path d="M6.13478 7.66847H19.1712V9.09262H6.13478V7.66847Z" fill="white"/>
<path d="M6.13478 11.9409H19.1712V13.3651H6.13478V11.9409Z" fill="white"/>
<path d="M6.13478 16.2133H19.1712V17.6375H6.13478V16.2133Z" fill="white"/>
</svg>
